<?xml version="1.0" encoding="UTF-8" standalone="no"?><!DOCTYPE svg PUBLIC "-//W3C//DTD SVG 1.1//EN" "http://www.w3.org/Graphics/SVG/1.1/DTD/svg11.dtd"><svg width="100%" height="100%" viewBox="0 0 2481 2481" version="1.1" xmlns="http://www.w3.org/2000/svg" xmlns:xlink="http://www.w3.org/1999/xlink" xml:space="preserve" xmlns:serif="http://www.serif.com/" style="fill-rule:evenodd;clip-rule:evenodd;stroke-linecap:round;stroke-linejoin:round;stroke-miterlimit:1.5;"><rect id="Artboard16" x="0" y="0" width="2480.315" height="2480.315" style="fill:none;"/><g><g><g><g><path d="M631.143,997.576c-6.421,0 -12.128,9.8 -12.842,22.401c-7.848,154.705 -7.134,291.909 0,445.213c1.427,25.901 17.836,32.201 27.11,33.601c34.245,6.3 77.051,8.4 122.71,8.4c34.958,0 71.343,-1.4 107.728,-3.5c7.134,0 12.842,-4.2 12.842,-9.8l0,-86.103c0,-5.6 -7.134,-9.8 -15.695,-9.8c-58.501,2.1 -78.477,4.2 -131.985,3.5c-4.281,-125.304 -3.567,-250.607 2.854,-375.211c0.713,-11.9 -3.567,-22.401 -9.988,-23.101l-102.734,-5.6Z" style="fill:#5b96ca;fill-rule:nonzero;"/><path d="M1020.018,1143.181c-4.994,0 -9.275,0.7 -14.269,0.7c-126.277,8.4 -180.498,71.402 -174.077,194.606c4.994,112.003 68.489,170.805 183.352,165.905c107.015,-3.5 169.797,-50.401 169.797,-146.304c0,-5.6 -3.567,-9.8 -11.415,-9.1l-96.313,16.1c-5.707,1.4 -8.561,7 -9.275,11.9c-2.14,18.201 -19.976,34.301 -47.8,36.401c-29.964,2.1 -52.794,-9.8 -63.495,-46.201l216.883,-43.401c10.701,-2.1 12.842,-4.9 10.701,-16.1c-2.14,-18.201 -4.281,-36.401 -8.561,-53.902c-18.549,-72.802 -79.191,-110.603 -155.528,-110.603Z" style="fill:#f1b4af;fill-rule:nonzero;"/><path d="M1149.918,1139.681c-8.561,0 -12.842,7 -12.128,21.701c0.713,90.303 35.672,127.404 72.057,151.204c-38.525,32.901 -77.051,90.303 -78.477,176.405c0,14.7 4.281,21.701 13.555,21.001l88.466,-4.2c8.561,-0.7 16.409,0 16.409,-21.001c0,-49.701 22.116,-91.003 46.373,-104.303c23.543,13.3 45.66,54.602 45.66,104.303c0,21.001 8.561,20.301 16.409,21.001l88.466,4.2c9.275,0.7 13.555,-6.3 13.555,-21.001c-0.713,-86.103 -39.952,-143.504 -78.477,-176.405c36.385,-23.801 71.343,-60.902 72.77,-151.204c0,-15.4 -4.281,-21.701 -13.555,-21.701l-89.179,4.9c-7.848,0 -16.409,0 -16.409,21.001c0,44.801 -17.836,83.302 -39.239,99.403c-22.116,-16.1 -39.952,-54.602 -39.952,-99.403c0,-21.001 -8.561,-21.001 -16.409,-21.001l-88.466,-4.9l-1.427,0Z" style="fill:#59a685;fill-rule:nonzero;"/><path d="M1488.14,970.276c-42.806,0 -77.764,33.601 -79.191,75.602c-0.713,19.601 6.421,39.201 21.403,53.902c14.982,14.7 34.245,22.401 53.507,22.401c42.092,0 79.191,-35.001 79.191,-76.302c0.713,-19.601 -6.421,-38.501 -21.403,-53.902c-14.269,-14 -33.531,-21.701 -53.507,-21.701Zm-55.648,171.505c-6.421,0 -11.415,7 -11.415,16.8c-2.14,110.603 0,221.907 5.707,332.51c0,9.1 5.707,16.1 11.415,16.1l97.74,-5.6c5.707,0 10.701,-7.7 9.988,-16.8c-5.707,-107.803 -7.848,-216.306 -5.707,-324.11c0.713,-9.1 -4.281,-16.1 -10.701,-16.1l-97.027,-2.8Z" style="fill:#fcda81;fill-rule:nonzero;"/><path d="M888.691,1471.064c-21.883,-17.432 -37.656,-41.433 -47.054,-71.613c9.275,-0.401 19.529,-0.826 31.358,-1.251c8.561,0 15.695,4.2 15.695,9.8l-0,63.063Z" style="fill:#d79fa4;"/><path d="M1420.396,1278.127c-0.304,-39.896 -0.088,-79.766 0.681,-119.546c0,-9.8 4.994,-16.8 11.415,-16.8l16.613,0.479c3.694,3.135 5.448,9.264 5.448,19.121c-0.892,56.464 -14.894,92.128 -34.157,116.746Zm35.945,228.025l-18.141,1.039c-5.707,0 -11.415,-7 -11.415,-16.1c-2.292,-44.412 -4.008,-88.937 -5.104,-133.485c21.809,32.722 38.122,76.147 38.58,131.385c0,8.002 -1.268,13.722 -3.92,17.161Z" style="fill:#e1c868;"/><path d="M1182.02,1290.404c-21.146,-21.287 -38.244,-52.144 -42.932,-102.737c17.026,17.205 29.634,39.333 36.491,66.244c2.914,11.914 4.836,24.152 6.442,36.493Zm-49.834,181.661c3.964,-52.004 21.758,-92.647 44.005,-122.99c5.934,0.415 8.662,4.242 8.662,9.139c0,52.128 -18.548,89.778 -52.667,113.851Z" style="fill:#629676;"/><path d="M1759.737,1144.965c-5.6,0 -10.5,7 -10.5,16.1c0,2.1 0.7,4.2 0.7,6.3c-20.3,-13.3 -46.2,-23.1 -78.4,-23.1c-214.2,0 -220.5,360.5 5.6,360.5c27.3,0 49.7,-5.6 67.2,-14.7c0.7,7 4.9,11.9 9.8,11.9l95.2,5.6c6.3,0 11.2,-7 11.9,-16.1c5.6,-110.6 7.7,-221.9 5.6,-332.5c0,-9.8 -5.6,-16.8 -11.2,-16.8l-95.9,2.8Zm-66.5,98c25.2,0 56.7,25.9 56.7,70.7c-0.7,15.4 -0.7,30.8 -1.4,45.5c-4.2,25.2 -21,46.9 -48.3,46.9c-84.7,0 -88.9,-163.1 -7,-163.1Z" style="fill:#d8bdd9;fill-rule:nonzero;"/><path d="M1543.734,1438.692c-44.919,-63.183 -45.624,-158.568 -4.236,-223.653c-0.488,74.484 1.002,149.188 4.236,223.653Z" style="fill:#e1c868;"/></g></g><g><g><path d="M931.618,1284.302c7.971,60.16 127.942,50.229 134.291,-18.998c0.953,-10.391 -9.385,-23.342 -22.052,-20.772c-25.69,1.816 -31.347,25.462 -46.405,27.271c-16.832,2.022 -16.579,-13.582 -41.939,-9.995c-9.682,1.37 -25.765,8.378 -23.895,22.494Z"/><clipPath id="_clip1"><path d="M931.618,1284.302c7.971,60.16 127.942,50.229 134.291,-18.998c0.953,-10.391 -9.385,-23.342 -22.052,-20.772c-25.69,1.816 -31.347,25.462 -46.405,27.271c-16.832,2.022 -16.579,-13.582 -41.939,-9.995c-9.682,1.37 -25.765,8.378 -23.895,22.494Z"/></clipPath><g clip-path="url(#_clip1)"><path d="M937.895,1249.863l13.345,38.035l-25.368,45.86c58.004,0.404 114.267,-10.949 168.881,-33.449l-49.586,-35.256l-1.295,-31.672l-45.364,38.17l-60.613,-21.688Z" style="fill:#fff;"/></g><path d="M931.618,1284.302c7.971,60.16 127.942,50.229 134.291,-18.998c0.953,-10.391 -9.385,-23.342 -22.052,-20.772c-25.69,1.816 -31.347,25.462 -46.405,27.271c-16.832,2.022 -16.579,-13.582 -41.939,-9.995c-9.682,1.37 -25.765,8.378 -23.895,22.494Z" style="fill:none;stroke:#000;stroke-width:2.71px;"/><path d="M936.399,1239.284c4.319,-23.283 30.239,-24.628 37.477,-5.302" style="fill:none;stroke:#000;stroke-width:2.71px;"/><path d="M1010.463,1225.955c4.008,-23.239 28.861,-24.433 35.915,-5.081" style="fill:none;stroke:#000;stroke-width:2.71px;"/><path d="M958.557,1192.311l-36.331,13.412l41.733,-9.006l-37.891,13.633" style="fill:none;stroke:#000;stroke-width:2.71px;"/><path d="M1045.42,1187.08l-38.856,-0.889l37.687,7.44l-36.939,-2.158" style="fill:none;stroke:#000;stroke-width:2.71px;"/><path d="M913.859,1248.844c8.618,-1.219 16.16,1.639 16.83,6.379c0.671,4.74 -5.782,9.578 -14.4,10.798c-8.618,1.219 -16.16,-1.639 -16.83,-6.379c-0.671,-4.74 5.782,-9.578 14.4,-10.798Z" style="fill:#ff5695;"/><path d="M1071.728,1217.171c8.618,-1.219 16.16,1.639 16.83,6.379c0.671,4.74 -5.782,9.578 -14.4,10.798c-8.618,1.219 -16.16,-1.639 -16.83,-6.379c-0.671,-4.74 5.782,-9.578 14.4,-10.798Z" style="fill:#ff5695;"/></g><path d="M892.412,1127.693c9.832,26.616 35.728,43.567 55.177,40.509c10.807,-1.699 23.276,-5.048 26.245,-16.809c2.969,-11.761 -6.678,-18.71 -13.586,-13.713c-4.503,3.258 -5.261,8.64 -2.657,14.314c2.56,5.58 15.392,11.463 24.829,12.171c6.469,0.485 17.678,-2.062 21.694,-5.396c3.592,-2.982 9.577,-8.7 8.973,-13.926c-0.403,-3.491 -2.748,-7.529 -9.277,-6.33c-4.976,0.914 -5.086,6.804 -3.655,10.43c1.864,4.72 17.534,17.031 41.514,12.437" style="fill:none;stroke:#000;stroke-width:2.92px;"/></g></g><g><path d="M834.897,1374.279c0,0 -32.759,25.913 -68.134,0.873c-31.342,-22.186 -27.906,-30.837 -28.005,-31.806" style="fill:none;stroke:#000;stroke-width:2.71px;"/><path d="M767.53,1269.514l-19.644,-18.342c-7.107,-6.412 -17.055,0.774 -11.992,8.602l21.134,27.653l5.158,5.382c0,0 -31.896,23.961 -17.077,39.495c3.149,3.3 14.968,-0.353 26.442,-13.779" style="fill:none;stroke:#000;stroke-width:2.71px;"/><path d="M838.164,1299.271c0,0 -22.897,57.708 -61.027,-5.512c0,0 -0.598,-13.193 -4.45,-18.863c-2.574,-3.79 2.945,-9.399 -2.234,-13.966l-18.676,-24.227c0,0 -8.503,-7.817 -13.482,-0.708" style="fill:none;stroke:#000;stroke-width:2.71px;"/></g><path d="M1160.853,1308.178c0,0 113.496,20.569 114.404,-98.514c0.239,-31.39 0.954,-51.864 -0.978,-65.131c-1.147,-7.88 -2.915,-10.888 -7.416,-11.381c-8.074,-0.884 -17.03,24.077 -17.03,24.077c0,0 2.391,-36.444 -9.534,-36.546c-10.331,-0.088 -12.712,34.957 -12.712,34.957c0,0 -4.503,-34.432 -15.889,-34.957c-14.061,-0.648 -11.123,52.435 -11.123,52.435c0,0 -22.147,-2.122 -22.245,6.356c-0.116,10.071 20.656,15.889 20.656,15.889c0.476,16.264 -0.091,25.563 -4.767,30.19c-7.277,7.201 -16.349,8.568 -27.012,4.767" style="fill:none;stroke:#000;stroke-width:2.71px;"/></g></svg>